<svg width="60" height="60" viewBox="0 0 60 60" fill="none" xmlns="http://www.w3.org/2000/svg">
<path fill-rule="evenodd" clip-rule="evenodd" d="M60 30C60 46.5685 46.5685 60 30 60C13.4315 60 0 46.5685 0 30C0 13.4315 13.4315 0 30 0C46.5685 0 60 13.4315 60 30ZM27.1883 40.4856L44.2598 23.4142C45.0408 22.6332 45.0408 21.3668 44.2598 20.5858C43.4787 19.8047 42.2124 19.8047 41.4313 20.5858L25.7744 36.2426L18.3822 28.8504C17.6012 28.0694 16.3349 28.0694 15.5538 28.8504C14.7728 29.6315 14.7728 30.8978 15.5538 31.6789L24.3273 40.4524C24.338 40.4636 24.3488 40.4746 24.3598 40.4856C25.1409 41.2667 26.4072 41.2667 27.1883 40.4856Z" fill="#16C75E"/>
</svg>
